<svg viewBox="0 0 144 144" fill="none" xmlns="http://www.w3.org/2000/svg">
<g clip-path="url(#clip0_167_24)">
<rect width="144" height="144" rx="72" fill="white"/>
<rect x="36.3857" y="92.5734" width="70.679" height="73.0749" rx="23.959" fill="#B56AFF"/>
<path d="M72.2711 98C86.6613 98 99.7042 95.546 109.175 92.277C113.906 90.6442 117.785 88.7944 120.503 86.918C121.861 85.9805 122.963 85.0134 123.734 84.0343C124.501 83.061 125 82.0005 125 80.9C125 79.7597 124.466 78.8032 123.62 78.0381C122.794 77.292 121.642 76.6952 120.274 76.2018C117.536 75.2137 113.647 74.5406 108.948 74.0732C99.529 73.1363 86.5465 73 72.2711 73C57.9961 73 45.1273 73.1363 35.822 74.0733C31.1795 74.5408 27.3462 75.2141 24.6492 76.2036C23.302 76.6978 22.1668 77.2961 21.354 78.0443C20.5201 78.812 20 79.767 20 80.9C20 81.9945 20.4863 83.0526 21.2404 84.0273C21.9986 85.0072 23.0821 85.9752 24.4191 86.9136C27.0949 88.7916 30.9178 90.6423 35.5923 92.2758C44.9509 95.546 57.8807 98 72.2711 98Z" fill="url(#paint0_linear_167_24)" stroke="white" stroke-width="2"/>
<rect x="41" y="24" width="64" height="56" fill="url(#paint1_linear_167_24)"/>
<path d="M73 30.5C81.0725 30.5 88.4205 29.8803 93.7856 28.8628C96.4558 28.3564 98.7112 27.7375 100.335 27.0096C101.142 26.6478 101.876 26.2228 102.43 25.7086C102.984 25.196 103.5 24.4556 103.5 23.5C103.5 22.5444 102.984 21.804 102.43 21.2914C101.876 20.7772 101.142 20.3522 100.335 19.9904C98.7112 19.2625 96.4558 18.6436 93.7856 18.1372C88.4205 17.1197 81.0725 16.5 73 16.5C64.9275 16.5 57.5795 17.1197 52.2144 18.1372C49.5442 18.6436 47.2888 19.2625 45.6652 19.9904C44.8584 20.3522 44.1243 20.7772 43.5695 21.2914C43.0165 21.804 42.5 22.5444 42.5 23.5C42.5 24.4556 43.0165 25.196 43.5695 25.7086C44.1243 26.2228 44.8584 26.6478 45.6652 27.0096C47.2888 27.7375 49.5442 28.3564 52.2144 28.8628C57.5795 29.8803 64.9275 30.5 73 30.5Z" fill="url(#paint2_linear_167_24)" stroke="white" stroke-width="3"/>
<path d="M41 71C41 71 42.3521 76.8286 73 76.8286C103.648 76.8286 105 71 105 71V80.7143C105 80.7143 104.099 88 73 88C41.9014 88 41 80.7143 41 80.7143V71Z" fill="white"/>
<path d="M39.9501 85.0198C40.5256 83.5007 42.4162 83.1926 43.5575 84.3487L63.2094 104.255C64.3977 105.459 63.9983 107.482 62.4417 108.144L43.947 116.006C42.8863 116.457 41.6437 116.092 41.0707 115.092C34.3795 103.413 37.8038 90.6846 39.9501 85.0198Z" fill="#B56AFF"/>
<path d="M104.05 85.0198C103.474 83.5007 101.584 83.1926 100.442 84.3487L80.7906 104.255C79.6023 105.459 80.0017 107.482 81.5583 108.144L100.053 116.006C101.114 116.457 102.356 116.092 102.929 115.092C109.62 103.413 106.196 90.6846 104.05 85.0198Z" fill="#B56AFF"/>
<path d="M73.0251 130.402C72.6065 130.704 72.0415 130.704 71.623 130.402L69.1052 128.585C68.1626 127.904 68.6439 126.415 69.8063 126.415L74.8418 126.415C76.0042 126.415 76.4854 127.904 75.5428 128.585L73.0251 130.402Z" fill="white"/>
<circle cx="69.6841" cy="76.6842" r="75.6764" transform="rotate(-149.983 69.6841 76.6842)" fill="url(#paint3_radial_167_24)" fill-opacity="0.7"/>
<path d="M16.0391 74.0891C13.8315 74.1715 11.9612 72.4472 12.026 70.2391C12.2568 62.3767 14.0316 54.6357 17.2489 47.4581C18.1526 45.4422 20.5873 44.7049 22.5385 45.7408L22.8652 45.9142C24.8164 46.9501 25.5429 49.3665 24.6611 51.392C22.1093 57.2537 20.6683 63.5391 20.4116 69.927C20.3229 72.1344 18.6163 73.9929 16.4087 74.0753L16.0391 74.0891Z" fill="white"/>
<path d="M25.7699 40.3966C23.9462 39.1499 23.4681 36.6513 24.8335 34.9147C25.6289 33.9031 26.4566 32.9174 27.3153 31.9591C28.7896 30.3138 31.3332 30.3526 32.8765 31.9331L33.1349 32.1978C34.6783 33.7784 34.635 36.3011 33.1786 37.9622C32.6939 38.5151 32.221 39.0782 31.7604 39.6512C30.3762 41.373 27.899 41.852 26.0752 40.6053L25.7699 40.3966Z" fill="white"/>
<path d="M71.2582 42.8995C71.9638 40.7278 75.0362 40.7278 75.7418 42.8995L76.6753 45.7725C76.9908 46.7437 77.8959 47.4012 78.917 47.4012H81.9379C84.2213 47.4012 85.1707 50.3232 83.3234 51.6653L80.8795 53.4409C80.0533 54.0412 79.7076 55.1051 80.0232 56.0763L80.9567 58.9493C81.6623 61.121 79.1767 62.9268 77.3294 61.5847L74.8855 59.8091C74.0593 59.2088 72.9407 59.2088 72.1145 59.8091L69.6706 61.5847C67.8233 62.9268 65.3377 61.121 66.0433 58.9493L66.9768 56.0763C67.2924 55.1051 66.9467 54.0412 66.1205 53.4409L63.6766 51.6653C61.8293 50.3232 62.7787 47.4012 65.0621 47.4012H68.083C69.1041 47.4012 70.0092 46.7437 70.3247 45.7725L71.2582 42.8995Z" fill="white"/>
<ellipse cx="51.9591" cy="118.329" rx="3.59385" ry="5.39077" fill="white"/>
<ellipse cx="91.4913" cy="118.329" rx="3.59385" ry="5.39077" fill="white"/>
</g>
<rect x="2" y="2" width="140" height="140" rx="70" stroke="url(#paint4_radial_167_24)" stroke-width="4"/>
<defs>
<linearGradient id="paint0_linear_167_24" x1="21" y1="85.5" x2="124" y2="85.5" gradientUnits="userSpaceOnUse">
<stop stop-color="#72009A"/>
<stop offset="1" stop-color="#1A0023"/>
</linearGradient>
<linearGradient id="paint1_linear_167_24" x1="41" y1="52" x2="105" y2="52" gradientUnits="userSpaceOnUse">
<stop stop-color="#72009A"/>
<stop offset="0.865366" stop-color="#1A0023"/>
<stop offset="1" stop-color="#38014B"/>
</linearGradient>
<linearGradient id="paint2_linear_167_24" x1="44" y1="23.5" x2="102" y2="23.5" gradientUnits="userSpaceOnUse">
<stop stop-color="#72009A"/>
<stop offset="1" stop-color="#260034"/>
</linearGradient>
<radialGradient id="paint3_radial_167_24" cx="0" cy="0" r="1" gradientUnits="userSpaceOnUse" gradientTransform="translate(96.3307 49.5047) rotate(104.524) scale(106.251)">
<stop stop-color="#C00EFF"/>
<stop offset="1" stop-color="white" stop-opacity="0.25"/>
</radialGradient>
<radialGradient id="paint4_radial_167_24" cx="0" cy="0" r="1" gradientUnits="userSpaceOnUse" gradientTransform="translate(72 72) rotate(90) scale(72)">
<stop stop-color="#72009A"/>
<stop offset="1" stop-color="white"/>
</radialGradient>
<clipPath id="clip0_167_24">
<rect width="144" height="144" rx="72" fill="white"/>
</clipPath>
</defs>
</svg>
