<svg viewBox="0 0 2017 713" fill="none" xmlns="http://www.w3.org/2000/svg">
<g clip-path="url(#clip0_876_14620)">
<path d="M648.051 340.454H341.75V645.822H648.051V340.454Z" fill="#FBCE11"/>
<path d="M542.272 554.191C572.072 515.061 600.94 444.005 576.426 340.454H474.689C502.624 463.337 420.27 523.664 356.833 542.115C351.806 543.566 346.726 544.654 341.699 545.587V645.822H404.67C468.003 628.511 513.248 592.388 542.272 554.191Z" fill="white" fill-opacity="0.3"/>
<path d="M306.56 0.0507812H0V305.418H306.56V0.0507812Z" fill="#FBCE11"/>
<path d="M173.311 257.53C204.511 226.33 273.856 211.611 273.856 211.611C201.816 211.611 133.093 239.287 99.6123 305.367H137.239C148.589 280.594 164.811 266.082 173.311 257.53Z" fill="white" fill-opacity="0.3"/>
<path d="M648.051 0H341.647V305.419H648.051V0Z" fill="#8C4D9E"/>
<path d="M416.745 22.2348C419.492 12.8541 423.068 5.65004 427.162 0.104492H387.462C353.308 28.7133 336.05 88.2631 413.791 205.341C438.202 242.087 454.89 275.309 465.618 305.368H566.578C524.857 202.957 399.953 79.5561 416.745 22.2348Z" fill="white" fill-opacity="0.3"/>
<path d="M306.56 340.454H0.0522461V645.822H306.56V340.454Z" fill="#1A97D4"/>
<path d="M306.56 548.231C262.454 546.831 222.443 529.313 198.447 512.314C160.872 485.727 122.986 419.543 124.541 364.45C124.8 355.795 125.682 347.865 127.029 340.454H86.5517C65.147 412.287 73.7503 514.75 140.711 582.799C172.171 614.829 208.398 634.782 246.18 645.822H306.611V548.231H306.56Z" fill="white" fill-opacity="0.3"/>
<path d="M503.816 225.657C493.762 225.657 484.536 224.154 476.037 221.2C467.537 218.246 460.281 213.841 454.165 207.984C448.05 202.127 443.334 194.82 439.965 186.061C436.596 177.302 434.938 167.196 434.938 155.69C434.938 145.014 436.544 135.322 439.757 126.615C442.971 117.908 447.635 110.445 453.699 104.225C459.556 98.2652 466.811 93.6007 475.518 90.3874C484.174 87.1223 493.658 85.5156 503.92 85.5156C509.569 85.5156 514.7 85.8266 519.261 86.4485C523.822 87.0705 528.02 87.8997 531.907 88.9362C535.949 90.0764 539.629 91.3721 542.894 92.7715C546.159 94.1708 549.062 95.5183 551.549 96.7104V129.414H547.559C545.848 127.962 543.723 126.252 541.184 124.283C538.592 122.313 535.69 120.344 532.425 118.426C529.108 116.508 525.532 114.902 521.645 113.554C517.758 112.259 513.612 111.585 509.206 111.585C504.335 111.585 499.67 112.362 495.265 113.917C490.859 115.472 486.765 118.011 483.033 121.536C479.457 124.956 476.607 129.517 474.378 135.218C472.15 140.867 471.061 147.76 471.061 155.846C471.061 164.293 472.253 171.342 474.637 176.991C477.021 182.64 480.027 187.098 483.655 190.363C487.335 193.68 491.429 196.064 495.99 197.463C500.499 198.862 505.008 199.588 509.414 199.588C513.612 199.588 517.81 198.966 521.956 197.67C526.102 196.426 529.937 194.716 533.41 192.539C536.364 190.777 539.111 188.911 541.65 186.942C544.19 184.973 546.263 183.262 547.921 181.811H551.549V214.048C548.181 215.551 544.915 217.002 541.858 218.298C538.8 219.645 535.535 220.785 532.166 221.718C527.761 223.014 523.614 223.947 519.727 224.621C515.892 225.346 510.554 225.657 503.816 225.657Z" fill="white"/>
<path d="M218.557 416.796C238.977 416.796 255.561 400.574 255.561 380.673C255.561 360.719 238.977 344.601 218.557 344.601C198.085 344.601 181.5 360.771 181.5 380.673C181.5 400.574 198.085 416.796 218.557 416.796Z" fill="white" fill-opacity="0.3"/>
<path d="M890.656 80.9541C890.656 85.1003 889.671 89.2465 887.754 93.3408C885.836 97.4352 883.089 100.856 879.617 103.706C875.781 106.764 871.324 109.148 866.193 110.91C861.114 112.621 854.947 113.502 847.743 113.502C840.02 113.502 833.076 112.776 826.96 111.325C820.792 109.874 814.521 107.749 808.146 104.95V87.0697H809.131C814.573 91.5787 820.792 95.0512 827.893 97.487C834.993 99.9229 841.627 101.167 847.846 101.167C856.657 101.167 863.55 99.5083 868.422 96.1914C873.346 92.8744 875.781 88.4691 875.781 82.9753C875.781 78.259 874.641 74.7348 872.309 72.5062C869.977 70.2776 866.452 68.5155 861.684 67.2716C858.108 66.2869 854.221 65.5095 850.023 64.8876C845.825 64.2656 841.368 63.4882 836.703 62.5035C827.219 60.4822 820.17 57.0616 815.61 52.1898C811.049 47.318 808.717 40.9951 808.717 33.1691C808.717 24.203 812.5 16.8435 820.067 11.1424C827.634 5.38958 837.222 2.53906 848.883 2.53906C856.398 2.53906 863.291 3.26465 869.562 4.71582C875.833 6.16699 881.379 7.92912 886.251 10.0541V26.898H885.266C881.171 23.4255 875.833 20.575 869.199 18.2946C862.565 16.0142 855.776 14.874 848.831 14.874C841.212 14.874 835.097 16.4288 830.484 19.6421C825.872 22.8036 823.539 26.898 823.539 31.8734C823.539 36.3306 824.679 39.803 826.96 42.3426C829.292 44.8821 833.335 46.7998 839.139 48.1473C842.197 48.821 846.551 49.6503 852.2 50.5832C857.849 51.5161 862.669 52.5008 866.556 53.5373C874.486 55.6623 880.498 58.8237 884.54 63.0736C888.635 67.3234 890.656 73.2836 890.656 80.9541Z" fill="white" stroke="white" stroke-width="7"/>
<path d="M1002.03 103.758C999.39 104.898 997.006 105.987 994.881 106.971C992.756 107.956 989.957 109.045 986.485 110.133C983.582 111.066 980.369 111.843 976.948 112.465C973.528 113.139 969.744 113.45 965.65 113.45C957.876 113.45 950.827 112.362 944.504 110.185C938.181 108.008 932.636 104.587 927.92 99.9229C923.307 95.3621 919.731 89.6093 917.14 82.5607C914.548 75.564 913.252 67.3753 913.252 58.0981C913.252 49.2875 914.496 41.4097 916.984 34.4648C919.472 27.5199 923.048 21.6634 927.764 16.8435C932.325 12.179 937.819 8.65471 944.245 6.21882C950.672 3.78292 957.824 2.53906 965.702 2.53906C971.455 2.53906 977.208 3.21282 982.909 4.61216C988.61 6.01151 994.984 8.4474 1001.98 11.9198V28.8156H1000.89C994.984 23.892 989.18 20.2641 983.375 18.0355C977.57 15.8069 971.403 14.6667 964.769 14.6667C959.327 14.6667 954.455 15.5478 950.154 17.3099C945.8 19.072 941.965 21.7671 938.544 25.4468C935.227 29.0229 932.636 33.5837 930.822 39.0775C929.008 44.5712 928.075 50.8941 928.075 58.0981C928.075 65.6131 929.112 72.0916 931.133 77.5335C933.154 82.9235 935.797 87.3289 939.011 90.7495C942.379 94.2737 946.267 96.9169 950.776 98.6273C955.233 100.338 960.001 101.167 964.976 101.167C971.817 101.167 978.244 99.9748 984.204 97.6425C990.216 95.3103 995.814 91.786 1001.05 87.0697H1002.08V103.758H1002.03Z" fill="white" stroke="white" stroke-width="7"/>
<path d="M1112.43 111.533H1097.24L1086.77 81.7318H1040.49L1029.97 111.533H1015.51L1054.48 4.50879H1073.45L1112.43 111.533ZM1082.37 69.4486L1063.6 16.8956L1044.79 69.4486H1082.37Z" fill="white" stroke="white" stroke-width="7"/>
<path d="M1223.08 111.533H1204.63L1168.81 68.9822H1148.76V111.533H1134.5V4.50879H1164.46C1170.94 4.50879 1176.33 4.92341 1180.63 5.75265C1184.93 6.58189 1188.82 8.08489 1192.29 10.2616C1196.18 12.6975 1199.19 15.7554 1201.36 19.4869C1203.54 23.2185 1204.63 27.9348 1204.63 33.6358C1204.63 41.3581 1202.71 47.7848 1198.82 53.0193C1194.94 58.2021 1189.6 62.141 1182.81 64.7842L1223.08 111.533ZM1189.8 34.6206C1189.8 31.5627 1189.29 28.8159 1188.2 26.4837C1187.11 24.0996 1185.35 22.1301 1182.81 20.4717C1180.73 19.0723 1178.3 18.0876 1175.45 17.5693C1172.6 16.9992 1169.28 16.7401 1165.45 16.7401H1148.71V57.1137H1163.06C1167.57 57.1137 1171.51 56.6991 1174.83 55.9217C1178.19 55.1443 1181.05 53.6413 1183.38 51.5163C1185.5 49.4951 1187.11 47.2147 1188.15 44.5715C1189.29 41.9801 1189.8 38.6631 1189.8 34.6206Z" fill="white" stroke="white" stroke-width="7"/>
<path d="M1323.47 78.5703C1323.47 83.9085 1322.48 88.573 1320.46 92.6674C1318.44 96.7617 1315.74 100.079 1312.32 102.722C1308.28 105.883 1303.88 108.112 1299.06 109.459C1294.24 110.807 1288.12 111.481 1280.71 111.481H1242.77V4.50879H1274.44C1282.26 4.50879 1288.07 4.81975 1292.01 5.38986C1295.89 5.95996 1299.57 7.15199 1303.15 8.96595C1307.09 11.0391 1309.94 13.6823 1311.7 16.8956C1313.46 20.1089 1314.35 23.9959 1314.35 28.5049C1314.35 33.584 1313.05 37.8857 1310.46 41.4618C1307.87 45.0379 1304.45 47.8884 1300.09 50.0652V50.6353C1307.3 52.1383 1313.05 55.2997 1317.2 60.1715C1321.39 65.0433 1323.47 71.159 1323.47 78.5703ZM1299.57 30.3707C1299.57 27.7793 1299.11 25.6026 1298.28 23.8404C1297.4 22.0783 1296.05 20.6271 1294.08 19.5388C1291.85 18.2431 1289.11 17.4657 1285.89 17.1029C1282.68 16.7919 1278.69 16.6364 1273.97 16.6364H1257.02V47.5256H1275.42C1279.88 47.5256 1283.4 47.3183 1286.05 46.8519C1288.69 46.3854 1291.13 45.4525 1293.36 44.0013C1295.58 42.5502 1297.19 40.6844 1298.12 38.404C1299.11 36.1754 1299.57 33.4804 1299.57 30.3707ZM1308.7 79.1922C1308.7 74.8905 1308.02 71.4699 1306.73 68.9304C1305.43 66.3908 1303.1 64.2141 1299.68 62.4519C1297.35 61.2599 1294.6 60.4825 1291.28 60.1197C1287.97 59.7569 1284.03 59.6014 1279.31 59.6014H1256.97V99.4049H1275.79C1282 99.4049 1287.14 99.094 1291.13 98.4202C1295.12 97.7983 1298.33 96.6063 1300.92 94.8441C1303.62 92.9783 1305.59 90.8534 1306.78 88.4693C1308.07 86.0334 1308.7 82.9756 1308.7 79.1922Z" fill="white" stroke="white" stroke-width="7"/>
<path d="M1429.35 16.7919C1433.7 21.56 1437.02 27.4684 1439.35 34.4133C1441.69 41.3581 1442.83 49.2359 1442.83 58.0466C1442.83 66.8573 1441.63 74.735 1439.25 81.7318C1436.87 88.6766 1433.55 94.5331 1429.3 99.1458C1424.89 103.966 1419.66 107.646 1413.65 110.081C1407.63 112.517 1400.74 113.761 1393.07 113.761C1385.56 113.761 1378.71 112.517 1372.55 110.03C1366.38 107.542 1361.15 103.914 1356.84 99.1976C1352.54 94.4295 1349.23 88.6248 1346.89 81.7318C1344.56 74.8387 1343.42 66.9609 1343.42 58.0984C1343.42 49.3914 1344.56 41.5654 1346.89 34.6206C1349.17 27.6757 1352.54 21.7673 1356.95 16.8437C1361.2 12.1274 1366.38 8.55133 1372.65 6.06361C1378.92 3.57589 1385.71 2.33203 1393.07 2.33203C1400.74 2.33203 1407.63 3.57589 1413.75 6.11544C1419.87 8.55133 1425.05 12.1274 1429.35 16.7919ZM1428.05 58.0466C1428.05 44.1568 1424.95 33.4285 1418.73 25.9135C1412.51 18.3467 1404.01 14.5633 1393.23 14.5633C1382.34 14.5633 1373.79 18.3467 1367.62 25.9135C1361.46 33.4804 1358.35 44.1568 1358.35 58.0466C1358.35 72.0918 1361.51 82.8201 1367.83 90.2833C1374.15 97.7465 1382.6 101.478 1393.28 101.478C1403.9 101.478 1412.4 97.7465 1418.67 90.2833C1424.89 82.8201 1428.05 72.0918 1428.05 58.0466Z" fill="white" stroke="white" stroke-width="7"/>
<path d="M1559.85 111.533H1541.4L1505.64 68.9822H1485.58V111.533H1471.33V4.50879H1501.29C1507.77 4.50879 1513.16 4.92341 1517.46 5.75265C1521.76 6.58189 1525.65 8.08489 1529.07 10.2616C1532.95 12.6975 1535.96 15.7554 1538.14 19.4869C1540.31 23.2185 1541.4 27.9348 1541.4 33.6358C1541.4 41.3581 1539.48 47.7848 1535.6 53.0193C1531.71 58.2021 1526.37 62.141 1519.58 64.7842L1559.85 111.533ZM1526.58 34.6206C1526.58 31.5627 1526.06 28.8159 1524.97 26.4837C1523.88 24.0996 1522.12 22.1301 1519.58 20.4717C1517.51 19.0723 1515.07 18.0876 1512.27 17.5693C1509.42 16.9992 1506.11 16.7401 1502.27 16.7401H1485.53V57.1137H1499.89C1504.4 57.1137 1508.34 56.6991 1511.65 55.9217C1515.02 55.1443 1517.87 53.6413 1520.2 51.5163C1522.33 49.4951 1523.94 47.2147 1524.97 44.5715C1526.06 41.9801 1526.58 38.6631 1526.58 34.6206Z" fill="white" stroke="white" stroke-width="7"/>
<path d="M1659.31 16.7919C1663.66 21.56 1667.03 27.4684 1669.36 34.4133C1671.7 41.3581 1672.84 49.2359 1672.84 58.0466C1672.84 66.8573 1671.64 74.735 1669.26 81.7318C1666.88 88.6766 1663.56 94.5331 1659.31 99.1458C1654.9 103.966 1649.67 107.646 1643.71 110.081C1637.7 112.517 1630.8 113.761 1623.08 113.761C1615.57 113.761 1608.73 112.517 1602.56 110.03C1596.39 107.542 1591.16 103.914 1586.85 99.1976C1582.55 94.4295 1579.24 88.6248 1576.9 81.7318C1574.57 74.8387 1573.43 66.9609 1573.43 58.0984C1573.43 49.3914 1574.57 41.5654 1576.9 34.6206C1579.18 27.6757 1582.55 21.7673 1586.96 16.8437C1591.16 12.1274 1596.39 8.55133 1602.66 6.06361C1608.93 3.57589 1615.72 2.33203 1623.08 2.33203C1630.75 2.33203 1637.65 3.57589 1643.76 6.11544C1649.83 8.55133 1655.01 12.1274 1659.31 16.7919ZM1658.01 58.0466C1658.01 44.1568 1654.9 33.4285 1648.69 25.9135C1642.47 18.3467 1633.97 14.5633 1623.13 14.5633C1612.25 14.5633 1603.7 18.3467 1597.53 25.9135C1591.31 33.4804 1588.25 44.1568 1588.25 58.0466C1588.25 72.0918 1591.42 82.8201 1597.74 90.2833C1604.06 97.7465 1612.56 101.478 1623.19 101.478C1633.81 101.478 1642.31 97.7465 1648.58 90.2833C1654.85 82.8201 1658.01 72.0918 1658.01 58.0466Z" fill="white" stroke="white" stroke-width="7"/>
<path d="M1781.83 68.5158C1781.83 76.2899 1781 83.0274 1779.29 88.8321C1777.58 94.585 1774.78 99.4049 1770.89 103.24C1767.21 106.868 1762.86 109.563 1757.94 111.222C1753.01 112.88 1747.26 113.761 1740.68 113.761C1733.99 113.761 1728.14 112.88 1723.16 111.118C1718.19 109.356 1713.99 106.713 1710.57 103.292C1706.68 99.3531 1703.88 94.6368 1702.17 89.0394C1700.46 83.4939 1699.63 76.6527 1699.63 68.5676V4.50879H1713.83V69.2413C1713.83 75.046 1714.25 79.6068 1715.02 82.9756C1715.8 86.3444 1717.15 89.3504 1719.02 92.0973C1721.14 95.2069 1723.99 97.5391 1727.62 99.1458C1731.25 100.752 1735.6 101.53 1740.63 101.53C1745.76 101.53 1750.11 100.752 1753.69 99.1976C1757.32 97.6428 1760.17 95.2587 1762.34 92.0973C1764.21 89.3504 1765.56 86.2408 1766.33 82.7165C1767.11 79.1922 1767.53 74.8387 1767.53 69.6041V4.50879H1781.78V68.5158H1781.83Z" fill="white" stroke="white" stroke-width="7"/>
<path d="M1904.14 103.604C1898.29 106.299 1891.91 108.631 1884.97 110.6C1878.02 112.57 1871.34 113.606 1864.86 113.606C1856.51 113.606 1848.89 112.466 1841.95 110.134C1835 107.853 1829.1 104.381 1824.17 99.7684C1819.25 95.1039 1815.41 89.2992 1812.77 82.3543C1810.08 75.4094 1808.73 67.2207 1808.73 57.8917C1808.73 40.7887 1813.7 27.2617 1823.71 17.4145C1833.71 7.51541 1847.39 2.5918 1864.86 2.5918C1870.92 2.5918 1877.14 3.31738 1883.52 4.76855C1889.89 6.21972 1896.73 8.70744 1904.04 12.1799V29.0757H1902.74C1901.24 27.9354 1899.12 26.4324 1896.26 24.5667C1893.47 22.7009 1890.67 21.146 1887.92 19.9022C1884.6 18.3992 1880.87 17.2072 1876.67 16.2224C1872.48 15.2377 1867.71 14.7713 1862.42 14.7713C1850.45 14.7713 1840.96 18.6065 1834.02 26.3288C1827.07 33.9993 1823.55 44.4166 1823.55 57.529C1823.55 71.3669 1827.18 82.147 1834.49 89.8175C1841.79 97.488 1851.69 101.375 1864.24 101.375C1868.85 101.375 1873.46 100.909 1878.02 100.027C1882.58 99.0946 1886.62 97.9544 1890.05 96.5032V70.2785H1861.38V57.7881H1904.14V103.604V103.604Z" fill="white" stroke="white" stroke-width="7"/>
<path d="M2016.76 111.533H2002.51V59.135H1949.13V111.533H1934.93V4.50879H1949.13V46.4891H2002.51V4.50879H2016.76V111.533Z" fill="white" stroke="white" stroke-width="7"/>
<path d="M895.528 281.475C892.884 282.615 890.5 283.704 888.375 284.688C886.25 285.673 883.452 286.761 879.979 287.85C877.077 288.783 873.864 289.56 870.443 290.182C867.022 290.804 863.239 291.167 859.145 291.167C851.371 291.167 844.322 290.078 837.999 287.902C831.624 285.725 826.131 282.304 821.414 277.64C816.802 273.079 813.226 267.326 810.634 260.278C808.043 253.281 806.747 245.092 806.747 235.815C806.747 227.004 807.991 219.126 810.479 212.182C812.966 205.237 816.542 199.38 821.259 194.56C825.82 189.896 831.313 186.372 837.74 183.936C844.167 181.5 851.319 180.256 859.196 180.256C864.949 180.256 870.702 180.93 876.403 182.329C882.104 183.728 888.479 186.164 895.476 189.637V206.532H894.387C888.531 201.609 882.674 197.981 876.87 195.752C871.065 193.524 864.898 192.383 858.264 192.383C852.822 192.383 847.95 193.265 843.648 195.027C839.295 196.789 835.459 199.484 832.039 203.164C828.722 206.74 826.131 211.301 824.317 216.794C822.503 222.288 821.57 228.611 821.57 235.815C821.57 243.33 822.606 249.808 824.628 255.198C826.649 260.589 829.292 265.046 832.505 268.414C835.874 271.939 839.761 274.582 844.27 276.292C848.727 278.003 853.495 278.832 858.471 278.832C865.312 278.832 871.739 277.64 877.699 275.307C883.711 272.975 889.308 269.451 894.543 264.735H895.579V281.475H895.528Z" fill="white" stroke="white" stroke-width="7"/>
<path d="M992.031 289.249H921.545V182.226H992.031V194.871H935.746V224.206H992.031V236.852H935.746V276.603H992.031V289.249V289.249Z" fill="white" stroke="white" stroke-width="7"/>
<path d="M1102.16 289.249H1084.54L1033.8 193.524V289.249H1020.48V182.226H1042.56L1088.84 269.607V182.226H1102.11V289.249H1102.16Z" fill="white" stroke="white" stroke-width="7"/>
<path d="M1212.82 194.871H1174.57V289.249H1160.31V194.871H1122.07V182.226H1212.76V194.871H1212.82Z" fill="white" stroke="white" stroke-width="7"/>
<path d="M1321.6 289.249H1303.1L1267.34 246.699H1247.28V289.249H1233.08V182.226H1263.04C1269.51 182.226 1274.9 182.64 1279.21 183.469C1283.51 184.299 1287.4 185.802 1290.82 187.978C1294.7 190.414 1297.71 193.524 1299.89 197.204C1302.06 200.935 1303.15 205.6 1303.15 211.353C1303.15 219.075 1301.23 225.502 1297.35 230.736C1293.46 235.919 1288.12 239.858 1281.33 242.501L1321.6 289.249ZM1288.33 212.337C1288.33 209.28 1287.81 206.533 1286.72 204.2C1285.63 201.816 1283.87 199.847 1281.38 198.188C1279.31 196.789 1276.87 195.804 1274.08 195.286C1271.28 194.716 1267.91 194.457 1264.12 194.457H1247.38V234.831H1261.74C1266.25 234.831 1270.19 234.416 1273.51 233.638C1276.87 232.861 1279.72 231.358 1282.06 229.233C1284.18 227.212 1285.79 224.931 1286.83 222.288C1287.81 219.697 1288.33 216.38 1288.33 212.337Z" fill="white" stroke="white" stroke-width="7"/>
<path d="M1411.83 289.249H1341.35V182.226H1411.83V194.871H1355.55V224.206H1411.83V236.852H1355.55V276.603H1411.83V289.249Z" fill="white" stroke="white" stroke-width="7"/>
<path d="M1566.23 194.871H1512.12V225.035H1558.61V237.681H1512.12V289.198H1497.87V182.226H1566.23V194.871Z" fill="white" stroke="white" stroke-width="7"/>
<path d="M1668.17 194.508C1672.53 199.276 1675.89 205.184 1678.23 212.129C1680.56 219.074 1681.7 226.952 1681.7 235.762C1681.7 244.573 1680.51 252.451 1678.12 259.448C1675.74 266.392 1672.42 272.249 1668.17 276.862C1663.77 281.682 1658.53 285.361 1652.52 287.797C1646.51 290.233 1639.61 291.477 1631.89 291.477C1624.38 291.477 1617.54 290.233 1611.37 287.745C1605.2 285.258 1599.97 281.63 1595.66 276.913C1591.36 272.197 1588.05 266.341 1585.71 259.448C1583.38 252.555 1582.24 244.677 1582.24 235.814C1582.24 227.107 1583.38 219.281 1585.71 212.336C1587.99 205.391 1591.36 199.483 1595.77 194.56C1599.97 189.843 1605.2 186.267 1611.47 183.779C1617.74 181.292 1624.53 180.048 1631.89 180.048C1639.56 180.048 1646.46 181.292 1652.57 183.831C1658.69 186.267 1663.87 189.843 1668.17 194.508ZM1666.82 235.762C1666.82 221.873 1663.71 211.144 1657.5 203.578C1651.28 196.011 1642.78 192.279 1632 192.279C1621.11 192.279 1612.56 196.063 1606.39 203.578C1600.17 211.144 1597.12 221.821 1597.12 235.762C1597.12 249.808 1600.28 260.536 1606.6 267.999C1612.92 275.462 1621.37 279.194 1632.05 279.194C1642.67 279.194 1651.17 275.462 1657.44 267.999C1663.66 260.536 1666.82 249.808 1666.82 235.762Z" fill="white" stroke="white" stroke-width="7"/>
<path d="M1798.67 289.249H1780.17L1744.36 246.699H1724.3V289.249H1710.1V182.226H1740.06C1746.53 182.226 1751.92 182.64 1756.23 183.469C1760.53 184.299 1764.42 185.802 1767.84 187.978C1771.72 190.414 1774.73 193.524 1776.91 197.204C1779.08 200.935 1780.17 205.6 1780.17 211.353C1780.17 219.075 1778.25 225.502 1774.37 230.736C1770.48 235.919 1765.14 239.858 1758.35 242.501L1798.67 289.249ZM1765.35 212.337C1765.35 209.28 1764.83 206.533 1763.74 204.2C1762.65 201.816 1760.89 199.847 1758.4 198.188C1756.33 196.789 1753.89 195.804 1751.1 195.286C1748.25 194.716 1744.93 194.457 1741.09 194.457H1724.35V234.831H1738.71C1743.22 234.831 1747.16 234.416 1750.53 233.638C1753.89 232.861 1756.69 231.358 1759.08 229.233C1761.2 227.212 1762.81 224.931 1763.85 222.288C1764.88 219.697 1765.35 216.38 1765.35 212.337Z" fill="white" stroke="white" stroke-width="7"/>
<path d="M894.75 466.965H880.498V414.568H827.115V466.965H812.863V359.941H827.115V401.922H880.498V359.941H894.75V466.965Z" fill="white" stroke="white" stroke-width="7"/>
<path d="M999.856 466.965H929.371V359.941H999.856V372.587H943.572V401.922H999.856V414.568H943.572V454.319H999.856V466.965V466.965Z" fill="white" stroke="white" stroke-width="7"/>
<path d="M1112.68 466.965H1097.5L1087.03 437.164H1040.75L1030.28 466.965H1015.82L1054.79 359.941H1073.76L1112.68 466.965ZM1082.68 424.933L1063.91 372.38L1045.1 424.933H1082.68Z" fill="white" stroke="white" stroke-width="7"/>
<path d="M1202.55 466.965H1134.87V359.941H1149.12V454.319H1202.61V466.965H1202.55Z" fill="white" stroke="white" stroke-width="7"/>
<path d="M1286.77 372.587H1248.52V466.965H1234.27V372.587H1196.02V359.941H1286.72V372.587H1286.77Z" fill="white" stroke="white" stroke-width="7"/>
<path d="M1388.87 466.965H1374.62V414.568H1321.24V466.965H1307.04V359.941H1321.24V401.922H1374.62V359.941H1388.87V466.965Z" fill="white" stroke="white" stroke-width="7"/>
<path d="M1499.27 359.941L1461.59 420.01V466.913H1447.33V421.513L1409.55 359.941H1425.31L1454.59 407.83L1484.13 359.941H1499.27Z" fill="white" stroke="white" stroke-width="7"/>
<path d="M895.528 636.909C892.884 638.049 890.5 639.137 888.375 640.122C886.25 641.107 883.452 642.195 879.979 643.283C877.077 644.216 873.864 644.994 870.443 645.616C867.022 646.238 863.239 646.6 859.145 646.6C851.371 646.6 844.322 645.512 837.999 643.335C831.624 641.158 826.131 637.738 821.414 633.073C816.802 628.513 813.226 622.76 810.634 615.711C808.043 608.714 806.747 600.526 806.747 591.249C806.747 582.438 807.991 574.56 810.479 567.615C812.966 560.67 816.542 554.814 821.259 549.994C825.82 545.329 831.313 541.805 837.74 539.369C844.167 536.933 851.319 535.689 859.196 535.689C864.949 535.689 870.702 536.363 876.403 537.763C882.104 539.162 888.479 541.598 895.476 545.07V561.966H894.387C888.531 557.042 882.674 553.414 876.87 551.186C871.065 548.957 864.898 547.817 858.264 547.817C852.822 547.817 847.95 548.698 843.648 550.408C839.295 552.171 835.459 554.866 832.039 558.597C828.722 562.173 826.131 566.734 824.317 572.228C822.503 577.722 821.57 584.045 821.57 591.249C821.57 598.764 822.606 605.242 824.628 610.632C826.649 616.074 829.292 620.479 832.505 623.848C835.874 627.372 839.761 630.016 844.27 631.726C848.727 633.436 853.495 634.265 858.471 634.265C865.312 634.265 871.739 633.073 877.699 630.741C883.711 628.409 889.308 624.885 894.543 620.168H895.579V636.909H895.528Z" fill="white" stroke="white" stroke-width="7"/>
<path d="M1001.31 549.993C1005.66 554.761 1009.03 560.67 1011.31 567.614C1013.64 574.559 1014.78 582.437 1014.78 591.248C1014.78 600.058 1013.59 607.936 1011.21 614.933C1008.82 621.878 1005.51 627.734 1001.26 632.347C996.85 637.167 991.667 640.847 985.655 643.283C979.643 645.718 972.802 646.962 965.08 646.962C957.565 646.962 950.724 645.718 944.556 643.231C938.389 640.743 933.154 637.115 928.853 632.399C924.551 627.682 921.234 621.826 918.902 614.933C916.569 608.04 915.429 600.162 915.429 591.3C915.429 582.593 916.569 574.767 918.85 567.822C921.13 560.929 924.499 554.968 928.904 550.045C933.102 545.329 938.389 541.753 944.608 539.265C950.879 536.777 957.669 535.533 965.08 535.533C972.75 535.533 979.643 536.777 985.759 539.317C991.875 541.752 997.057 545.329 1001.31 549.993ZM1000.01 591.248C1000.01 577.358 996.902 566.63 990.683 559.063C984.463 551.496 975.964 547.764 965.184 547.764C954.3 547.764 945.748 551.548 939.581 559.063C933.361 566.63 930.252 577.306 930.252 591.248C930.252 605.293 933.413 616.021 939.736 623.484C946.059 630.948 954.559 634.679 965.184 634.679C975.808 634.679 984.256 630.948 990.579 623.484C996.85 616.021 1000.01 605.241 1000.01 591.248Z" fill="white" stroke="white" stroke-width="7"/>
<path d="M1138.6 644.682H1124.35V552.481L1094.6 615.244H1086.1L1056.56 552.481V644.682H1043.24V537.658H1062.67L1091.18 597.26L1118.75 537.658H1138.55V644.682H1138.6Z" fill="white" stroke="white" stroke-width="7"/>
<path d="M1268.53 644.682H1254.28V552.481L1224.53 615.244H1216.08L1186.54 552.481V644.682H1173.27V537.658H1192.65L1221.16 597.26L1248.78 537.658H1268.53V644.682V644.682Z" fill="white" stroke="white" stroke-width="7"/>
<path d="M1383.69 601.717C1383.69 609.491 1382.86 616.229 1381.15 622.033C1379.44 627.786 1376.64 632.606 1372.76 636.441C1369.08 640.069 1364.72 642.764 1359.8 644.423C1354.87 646.081 1349.12 646.962 1342.54 646.962C1335.85 646.962 1330 646.081 1325.02 644.319C1320.05 642.557 1315.85 639.914 1312.43 636.493C1308.54 632.554 1305.74 627.838 1304.03 622.241C1302.32 616.695 1301.49 609.854 1301.49 601.769V537.71H1315.74V602.494C1315.74 608.299 1316.16 612.86 1316.94 616.229C1317.71 619.597 1319.06 622.655 1320.93 625.35C1323.05 628.46 1325.9 630.792 1329.53 632.399C1333.16 634.005 1337.51 634.783 1342.59 634.783C1347.72 634.783 1352.08 634.005 1355.65 632.451C1359.28 630.896 1362.13 628.512 1364.31 625.35C1366.17 622.603 1367.52 619.494 1368.3 615.969C1369.08 612.445 1369.49 608.092 1369.49 602.857V537.762H1383.74V601.717H1383.69Z" fill="white" stroke="white" stroke-width="7"/>
<path d="M1498.38 644.682H1480.76L1430.02 548.957V644.682H1416.76V537.658H1438.83L1485.12 625.039V537.658H1498.44V644.682H1498.38Z" fill="white" stroke="white" stroke-width="7"/>
<path d="M1570.48 644.682H1528.24V633.746H1542.28V548.594H1528.24V537.658H1570.48V548.594H1556.43V633.746H1570.48V644.682Z" fill="white" stroke="white" stroke-width="7"/>
<path d="M1676.93 550.356H1638.68V644.734H1624.48V550.356H1586.23V537.71H1676.93V550.356Z" fill="white" stroke="white" stroke-width="7"/>
<path d="M1734.93 644.682H1692.63V633.746H1706.68V548.594H1692.63V537.658H1734.93V548.594H1720.88V633.746H1734.93V644.682Z" fill="white" stroke="white" stroke-width="7"/>
<path d="M1835.52 644.682H1765.04V537.658H1835.52V550.304H1779.24V579.638H1835.52V592.284H1779.24V632.036H1835.52V644.682Z" fill="white" stroke="white" stroke-width="7"/>
<path d="M1941.72 614.156C1941.72 618.302 1940.73 622.449 1938.81 626.543C1936.9 630.637 1934.15 634.058 1930.63 636.908C1926.79 639.966 1922.33 642.35 1917.25 644.112C1912.12 645.823 1906.01 646.704 1898.8 646.704C1891.08 646.704 1884.14 645.978 1878.02 644.527C1871.85 643.076 1865.58 640.951 1859.21 638.152V620.324H1860.24C1865.63 624.833 1871.91 628.305 1879.01 630.741C1886.11 633.177 1892.74 634.421 1898.96 634.421C1907.77 634.421 1914.61 632.762 1919.54 629.445C1924.46 626.128 1926.89 621.723 1926.89 616.229C1926.89 611.461 1925.75 607.989 1923.42 605.76C1921.09 603.532 1917.57 601.769 1912.85 600.526C1909.27 599.593 1905.33 598.763 1901.19 598.141C1896.99 597.52 1892.53 596.742 1887.87 595.757C1878.38 593.736 1871.34 590.316 1866.77 585.444C1862.21 580.572 1859.93 574.249 1859.93 566.423C1859.93 557.457 1863.72 550.097 1871.28 544.396C1878.85 538.695 1888.49 535.793 1900.1 535.793C1907.61 535.793 1914.51 536.519 1920.83 537.97C1927.1 539.421 1932.65 541.183 1937.52 543.308V560.152H1936.48C1932.39 556.679 1927.05 553.829 1920.42 551.549C1913.78 549.268 1906.99 548.128 1900.05 548.128C1892.43 548.128 1886.31 549.735 1881.7 552.844C1877.09 556.006 1874.76 560.1 1874.76 565.076C1874.76 569.533 1875.9 573.057 1878.23 575.596C1880.51 578.136 1884.55 580.054 1890.36 581.401C1893.41 582.075 1897.77 582.904 1903.42 583.837C1909.07 584.77 1913.83 585.807 1917.77 586.791C1925.75 588.916 1931.71 592.078 1935.76 596.327C1939.7 600.526 1941.72 606.486 1941.72 614.156Z" fill="white" stroke="white" stroke-width="7"/>
<path d="M214.307 563.779H179.531V504.333H128.17V563.779H93.29V428.82H128.118V478.212H179.479V428.82H214.255V563.779H214.307Z" fill="white"/>
<path d="M211.612 180.775C211.612 194.043 205.962 204.875 194.716 213.167C183.469 221.46 168.128 225.606 148.797 225.606C137.602 225.606 127.858 224.621 119.566 222.652C111.274 220.682 103.5 218.195 96.2437 215.189V182.848H100.027C107.231 188.601 115.264 193.007 124.179 196.064C133.093 199.122 141.645 200.677 149.885 200.677C152.01 200.677 154.757 200.47 158.229 200.159C161.702 199.796 164.5 199.174 166.677 198.345C169.32 197.256 171.549 195.909 173.259 194.25C174.97 192.592 175.851 190.208 175.851 186.995C175.851 184.04 174.607 181.501 172.067 179.324C169.58 177.199 165.9 175.541 161.08 174.4C156.001 173.208 150.663 172.068 145.013 170.98C139.364 169.943 134.078 168.596 129.102 166.937C117.752 163.258 109.563 158.23 104.588 151.959C99.6124 145.636 97.1247 137.81 97.1247 128.429C97.1247 115.887 102.774 105.625 114.02 97.644C125.267 89.7143 139.779 85.7236 157.452 85.7236C166.366 85.7236 175.125 86.6047 183.78 88.315C192.435 90.0253 199.95 92.2021 206.325 94.7934V125.89H202.594C197.152 121.536 190.518 117.909 182.64 114.954C174.762 112.052 166.729 110.549 158.488 110.549C155.586 110.549 152.684 110.756 149.833 111.119C146.983 111.534 144.184 112.259 141.541 113.348C139.209 114.281 137.136 115.628 135.477 117.494C133.767 119.36 132.938 121.433 132.938 123.817C132.938 127.393 134.285 130.088 137.032 132.006C139.727 133.923 144.91 135.634 152.425 137.188C157.4 138.225 162.116 139.21 166.677 140.194C171.238 141.179 176.162 142.475 181.396 144.185C191.71 147.554 199.329 152.166 204.252 158.023C209.176 163.88 211.612 171.446 211.612 180.775Z" fill="white"/>
<path d="M503.142 566.371C493.087 566.371 483.862 564.868 475.362 561.914C466.863 558.96 459.607 554.554 453.491 548.698C447.376 542.841 442.659 535.534 439.29 526.775C435.922 518.016 434.263 507.91 434.263 496.404C434.263 485.727 435.87 476.036 439.083 467.329C442.296 458.622 446.961 451.159 453.025 444.939C458.881 438.979 466.137 434.315 474.844 431.101C483.499 427.836 492.984 426.229 503.246 426.229C508.895 426.229 514.026 426.54 518.587 427.162C523.147 427.784 527.345 428.614 531.232 429.65C535.275 430.79 538.955 432.086 542.22 433.485C545.485 434.885 548.387 436.232 550.875 437.424V470.127H546.884C545.174 468.676 543.049 466.966 540.51 464.996C537.918 463.027 535.016 461.058 531.751 459.14C528.434 457.222 524.858 455.616 520.971 454.268C517.084 452.972 512.937 452.299 508.532 452.299C503.66 452.299 498.996 453.076 494.59 454.631C490.185 456.186 486.091 458.725 482.359 462.25C478.783 465.67 475.932 470.231 473.704 475.88C471.475 481.529 470.387 488.423 470.387 496.508C470.387 504.955 471.579 512.004 473.963 517.653C476.347 523.302 479.353 527.811 482.981 531.025C486.661 534.342 490.755 536.726 495.316 538.125C499.825 539.524 504.334 540.25 508.739 540.25C512.937 540.25 517.135 539.628 521.282 538.332C525.428 537.089 529.263 535.326 532.735 533.201C535.69 531.491 538.436 529.574 540.976 527.604C543.516 525.635 545.589 523.924 547.247 522.473H550.875V554.71C547.506 556.213 544.241 557.612 541.183 558.96C538.125 560.307 534.86 561.447 531.492 562.38C527.086 563.676 522.94 564.609 519.053 565.283C515.218 566.06 509.931 566.371 503.142 566.371Z" fill="white"/>
</g>
<defs>
<clipPath id="clip0_876_14620">
<rect width="2016.99" height="713" fill="white"/>
</clipPath>
</defs>
</svg>
