<svg id="visual" viewBox="0 0 900 600" width="900" height="600" xmlns="http://www.w3.org/2000/svg" xmlns:xlink="http://www.w3.org/1999/xlink" version="1.1"><path d="M0 55L16.7 71C33.3 87 66.7 119 100 126C133.3 133 166.7 115 200 103C233.3 91 266.7 85 300 77C333.3 69 366.7 59 400 57C433.3 55 466.7 61 500 78C533.3 95 566.7 123 600 129C633.3 135 666.7 119 700 119C733.3 119 766.7 135 800 142C833.3 149 866.7 147 883.3 146L900 145L900 0L883.3 0C866.7 0 833.3 0 800 0C766.7 0 733.3 0 700 0C666.7 0 633.3 0 600 0C566.7 0 533.3 0 500 0C466.7 0 433.3 0 400 0C366.7 0 333.3 0 300 0C266.7 0 233.3 0 200 0C166.7 0 133.3 0 100 0C66.7 0 33.3 0 16.7 0L0 0Z" fill="#6198ff"></path><path d="M0 301L16.7 288C33.3 275 66.7 249 100 237C133.3 225 166.7 227 200 217C233.3 207 266.7 185 300 187C333.3 189 366.7 215 400 236C433.3 257 466.7 273 500 280C533.3 287 566.7 285 600 275C633.3 265 666.7 247 700 243C733.3 239 766.7 249 800 274C833.3 299 866.7 339 883.3 359L900 379L900 143L883.3 144C866.7 145 833.3 147 800 140C766.7 133 733.3 117 700 117C666.7 117 633.3 133 600 127C566.7 121 533.3 93 500 76C466.7 59 433.3 53 400 55C366.7 57 333.3 67 300 75C266.7 83 233.3 89 200 101C166.7 113 133.3 131 100 124C66.7 117 33.3 85 16.7 69L0 53Z" fill="#3c80ff"></path><path d="M0 385L16.7 392C33.3 399 66.7 413 100 427C133.3 441 166.7 455 200 450C233.3 445 266.7 421 300 413C333.3 405 366.7 413 400 414C433.3 415 466.7 409 500 411C533.3 413 566.7 423 600 439C633.3 455 666.7 477 700 475C733.3 473 766.7 447 800 442C833.3 437 866.7 453 883.3 461L900 469L900 377L883.3 357C866.7 337 833.3 297 800 272C766.7 247 733.3 237 700 241C666.7 245 633.3 263 600 273C566.7 283 533.3 285 500 278C466.7 271 433.3 255 400 234C366.7 213 333.3 187 300 185C266.7 183 233.3 205 200 215C166.7 225 133.3 223 100 235C66.7 247 33.3 273 16.7 286L0 299Z" fill="#0066ff"></path><path d="M0 511L16.7 521C33.3 531 66.7 551 100 549C133.3 547 166.7 523 200 516C233.3 509 266.7 519 300 523C333.3 527 366.7 525 400 521C433.3 517 466.7 511 500 508C533.3 505 566.7 505 600 509C633.3 513 666.7 521 700 529C733.3 537 766.7 545 800 541C833.3 537 866.7 521 883.3 513L900 505L900 467L883.3 459C866.7 451 833.3 435 800 440C766.7 445 733.3 471 700 473C666.7 475 633.3 453 600 437C566.7 421 533.3 411 500 409C466.7 407 433.3 413 400 412C366.7 411 333.3 403 300 411C266.7 419 233.3 443 200 448C166.7 453 133.3 439 100 425C66.7 411 33.3 397 16.7 390L0 383Z" fill="#0059dd"></path><path d="M0 601L16.7 601C33.3 601 66.7 601 100 601C133.3 601 166.7 601 200 601C233.3 601 266.7 601 300 601C333.3 601 366.7 601 400 601C433.3 601 466.7 601 500 601C533.3 601 566.7 601 600 601C633.3 601 666.7 601 700 601C733.3 601 766.7 601 800 601C833.3 601 866.7 601 883.3 601L900 601L900 503L883.3 511C866.7 519 833.3 535 800 539C766.7 543 733.3 535 700 527C666.7 519 633.3 511 600 507C566.7 503 533.3 503 500 506C466.7 509 433.3 515 400 519C366.7 523 333.3 525 300 521C266.7 517 233.3 507 200 514C166.7 521 133.3 545 100 547C66.7 549 33.3 529 16.7 519L0 509Z" fill="#004cbb"></path></svg>
